<svg width="32" height="32" viewBox="0 0 32 32" fill="none" xmlns="http://www.w3.org/2000/svg">
<path d="M32 16C32 24.8366 24.8366 32 16 32C7.16344 32 0 24.8366 0 16C0 7.16344 7.16344 0 16 0C24.8366 0 32 7.16344 32 16Z" fill="#E6F2EB"/>
<path d="M18.48 10.72C19.8667 10.72 20.9667 11.14 21.78 11.98C22.6067 12.82 23.02 13.9867 23.02 15.48V22H19.62V15.94C19.62 15.22 19.4267 14.6667 19.04 14.28C18.6667 13.88 18.1467 13.68 17.48 13.68C16.8133 13.68 16.2867 13.88 15.9 14.28C15.5267 14.6667 15.34 15.22 15.34 15.94V22H11.94V15.94C11.94 15.22 11.7467 14.6667 11.36 14.28C10.9867 13.88 10.4667 13.68 9.8 13.68C9.13333 13.68 8.60667 13.88 8.22 14.28C7.84667 14.6667 7.66 15.22 7.66 15.94V22H4.24V10.84H7.66V12.24C8.00667 11.7733 8.46 11.4067 9.02 11.14C9.58 10.86 10.2133 10.72 10.92 10.72C11.76 10.72 12.5067 10.9 13.16 11.26C13.8267 11.62 14.3467 12.1333 14.72 12.8C15.1067 12.1867 15.6333 11.6867 16.3 11.3C16.9667 10.9133 17.6933 10.72 18.48 10.72Z" fill="#01421B"/>
<path d="M27.0119 22.16C26.4119 22.16 25.9185 21.9867 25.5319 21.64C25.1585 21.28 24.9719 20.84 24.9719 20.32C24.9719 19.7867 25.1585 19.34 25.5319 18.98C25.9185 18.62 26.4119 18.44 27.0119 18.44C27.5985 18.44 28.0785 18.62 28.4519 18.98C28.8385 19.34 29.0319 19.7867 29.0319 20.32C29.0319 20.84 28.8385 21.28 28.4519 21.64C28.0785 21.9867 27.5985 22.16 27.0119 22.16Z" fill="#01421B"/>
</svg>
