<svg width="129" height="27" viewBox="0 0 129 27" fill="none" xmlns="http://www.w3.org/2000/svg">
<path d="M23.7679 7.95204C25.9866 7.95204 27.7466 8.62404 29.0479 9.96804C30.3706 11.312 31.0319 13.1787 31.0319 15.568V26H25.5919V16.304C25.5919 15.152 25.2826 14.2667 24.6639 13.648C24.0666 13.008 23.2346 12.688 22.1679 12.688C21.1012 12.688 20.2586 13.008 19.6399 13.648C19.0426 14.2667 18.7439 15.152 18.7439 16.304V26H13.3039V16.304C13.3039 15.152 12.9946 14.2667 12.3759 13.648C11.7786 13.008 10.9466 12.688 9.87989 12.688C8.81322 12.688 7.97055 13.008 7.35189 13.648C6.75455 14.2667 6.45589 15.152 6.45589 16.304V26H0.983887V8.14404H6.45589V10.384C7.01055 9.63738 7.73589 9.05071 8.63189 8.62404C9.52789 8.17604 10.5412 7.95204 11.6719 7.95204C13.0159 7.95204 14.2106 8.24004 15.2559 8.81604C16.3226 9.39204 17.1546 10.2134 17.7519 11.28C18.3706 10.2987 19.2132 9.49871 20.2799 8.88004C21.3466 8.26138 22.5092 7.95204 23.7679 7.95204Z" fill="#01421B"/>
<path d="M33.7709 17.04C33.7709 15.2054 34.1122 13.5947 34.7949 12.208C35.4989 10.8214 36.4482 9.75471 37.6429 9.00804C38.8376 8.26138 40.1709 7.88804 41.6429 7.88804C42.9016 7.88804 44.0002 8.14404 44.9389 8.65604C45.8989 9.16804 46.6349 9.84004 47.1469 10.672V8.14404H52.6189V26H47.1469V23.472C46.6136 24.304 45.8669 24.976 44.9069 25.488C43.9682 26 42.8696 26.256 41.6109 26.256C40.1602 26.256 38.8376 25.8827 37.6429 25.136C36.4482 24.368 35.4989 23.2907 34.7949 21.904C34.1122 20.496 33.7709 18.8747 33.7709 17.04ZM47.1469 17.072C47.1469 15.7067 46.7629 14.6294 45.9949 13.84C45.2482 13.0507 44.3309 12.656 43.2429 12.656C42.1549 12.656 41.2269 13.0507 40.4589 13.84C39.7122 14.608 39.3389 15.6747 39.3389 17.04C39.3389 18.4054 39.7122 19.4934 40.4589 20.304C41.2269 21.0934 42.1549 21.488 43.2429 21.488C44.3309 21.488 45.2482 21.0934 45.9949 20.304C46.7629 19.5147 47.1469 18.4374 47.1469 17.072Z" fill="#01421B"/>
<path d="M59.3296 6.28804C58.3696 6.28804 57.5803 6.01071 56.9616 5.45604C56.3643 4.88004 56.0656 4.17604 56.0656 3.34404C56.0656 2.49071 56.3643 1.78671 56.9616 1.23204C57.5803 0.656042 58.3696 0.368042 59.3296 0.368042C60.2683 0.368042 61.0363 0.656042 61.6336 1.23204C62.2523 1.78671 62.5616 2.49071 62.5616 3.34404C62.5616 4.17604 62.2523 4.88004 61.6336 5.45604C61.0363 6.01071 60.2683 6.28804 59.3296 6.28804ZM62.0496 8.14404V26H56.5776V8.14404H62.0496Z" fill="#01421B"/>
<path d="M64.9271 17.04C64.9271 15.2054 65.2685 13.5947 65.9511 12.208C66.6551 10.8214 67.6045 9.75471 68.7991 9.00804C69.9938 8.26138 71.3271 7.88804 72.7991 7.88804C74.0578 7.88804 75.1565 8.14404 76.0951 8.65604C77.0551 9.16804 77.7911 9.84004 78.3031 10.672V8.14404H83.7751V26H78.3031V23.472C77.7698 24.304 77.0231 24.976 76.0631 25.488C75.1245 26 74.0258 26.256 72.7671 26.256C71.3165 26.256 69.9938 25.8827 68.7991 25.136C67.6045 24.368 66.6551 23.2907 65.9511 21.904C65.2685 20.496 64.9271 18.8747 64.9271 17.04ZM78.3031 17.072C78.3031 15.7067 77.9191 14.6294 77.1511 13.84C76.4045 13.0507 75.4871 12.656 74.3991 12.656C73.3111 12.656 72.3831 13.0507 71.6151 13.84C70.8685 14.608 70.4951 15.6747 70.4951 17.04C70.4951 18.4054 70.8685 19.4934 71.6151 20.304C72.3831 21.0934 73.3111 21.488 74.3991 21.488C75.4871 21.488 76.4045 21.0934 77.1511 20.304C77.9191 19.5147 78.3031 18.4374 78.3031 17.072Z" fill="#01421B"/>
<path d="M93.2059 11.12C93.8459 10.1387 94.6459 9.37071 95.6059 8.81604C96.5659 8.24004 97.6326 7.95204 98.8059 7.95204V13.744H97.3019C95.9366 13.744 94.9126 14.0427 94.2299 14.64C93.5472 15.216 93.2059 16.24 93.2059 17.712V26H87.7339V8.14404H93.2059V11.12Z" fill="#01421B"/>
<path d="M100.333 17.04C100.333 15.2054 100.675 13.5947 101.357 12.208C102.061 10.8214 103.011 9.75471 104.205 9.00804C105.4 8.26138 106.733 7.88804 108.205 7.88804C109.464 7.88804 110.563 8.14404 111.501 8.65604C112.461 9.16804 113.197 9.84004 113.709 10.672V8.14404H119.181V26H113.709V23.472C113.176 24.304 112.429 24.976 111.469 25.488C110.531 26 109.432 26.256 108.173 26.256C106.723 26.256 105.4 25.8827 104.205 25.136C103.011 24.368 102.061 23.2907 101.357 21.904C100.675 20.496 100.333 18.8747 100.333 17.04ZM113.709 17.072C113.709 15.7067 113.325 14.6294 112.557 13.84C111.811 13.0507 110.893 12.656 109.805 12.656C108.717 12.656 107.789 13.0507 107.021 13.84C106.275 14.608 105.901 15.6747 105.901 17.04C105.901 18.4054 106.275 19.4934 107.021 20.304C107.789 21.0934 108.717 21.488 109.805 21.488C110.893 21.488 111.811 21.0934 112.557 20.304C113.325 19.5147 113.709 18.4374 113.709 17.072Z" fill="#01421B"/>
<path d="M125.7 26.256C124.74 26.256 123.951 25.9787 123.332 25.424C122.735 24.848 122.436 24.144 122.436 23.312C122.436 22.4587 122.735 21.744 123.332 21.168C123.951 20.592 124.74 20.304 125.7 20.304C126.639 20.304 127.407 20.592 128.004 21.168C128.623 21.744 128.932 22.4587 128.932 23.312C128.932 24.144 128.623 24.848 128.004 25.424C127.407 25.9787 126.639 26.256 125.7 26.256Z" fill="#01421B"/>
</svg>
